<svg width="72" height="70" viewBox="0 0 72 70" fill="none" xmlns="http://www.w3.org/2000/svg">
<mask id="mask0" mask-type="alpha" maskUnits="userSpaceOnUse" x="0" y="0" width="72" height="70">
<rect width="72" height="70" fill="#C4C4C4"/>
</mask>
<g mask="url(#mask0)">
<rect x="15" y="-25" width="80" height="80" rx="40" fill="#FCB869"/>
</g>
<path d="M54.576 19.4312L31.3261 8.20713C31.12 8.10772 30.88 8.10772 30.674 8.20713L7.42396 19.4312C7.16472 19.5563 7 19.8189 7 20.1067V47.3652C7 47.6531 7.16472 47.9156 7.42396 48.0407L30.6739 59.2648C30.7769 59.3145 30.8885 59.3394 31 59.3394C31.1115 59.3394 31.223 59.3145 31.3261 59.2648L54.576 48.0407C54.8353 47.9156 55 47.6531 55 47.3652V20.1068C55 19.8188 54.8352 19.5564 54.576 19.4312ZM31 9.71563L52.5246 20.1067L46.285 23.1189C46.2455 23.0888 46.2038 23.061 46.158 23.0389L24.7797 12.7185L31 9.71563ZM23.0856 13.5666L44.5789 23.9426L40.1768 26.0678L18.6925 15.696L23.0856 13.5666ZM45.0818 25.3656V33.2213L40.9699 35.2063V27.3507L45.0818 25.3656ZM53.4998 46.8946L31.7501 57.3942V31.8016L36.9381 29.297C37.3111 29.1169 37.4676 28.6686 37.2874 28.2954C37.1073 27.9225 36.659 27.7658 36.2858 27.9461L31 30.4979L28.9201 29.4938C28.547 29.3134 28.0986 29.4701 27.9185 29.8431C27.7384 30.2162 27.8948 30.6646 28.2678 30.8447L30.2499 31.8016V57.3942L8.5002 46.8944V21.3018L25.0624 29.2973C25.1675 29.3481 25.2786 29.3722 25.388 29.3722C25.6668 29.3722 25.9346 29.2159 26.0639 28.948C26.2441 28.5749 26.0876 28.1265 25.7146 27.9464L9.47543 20.1067L16.9269 16.5094L39.4593 27.3872C39.4626 27.3918 39.4663 27.3959 39.4697 27.4004V36.4015C39.4697 36.6596 39.6024 36.8996 39.8211 37.0369C39.9425 37.1131 40.081 37.1516 40.2199 37.1516C40.3311 37.1516 40.4427 37.1269 40.546 37.077L46.158 34.3677C46.4173 34.2426 46.582 33.9802 46.582 33.6922V24.6415L53.4998 21.3019V46.8946Z" fill="black"/>
<path d="M14.6904 43.9853L11.2784 42.3382C10.9052 42.1579 10.4569 42.3145 10.2768 42.6875C10.0967 43.0606 10.2531 43.509 10.6262 43.6892L14.0381 45.3363C14.1432 45.3871 14.2543 45.4111 14.3637 45.4111C14.6425 45.4111 14.9103 45.2549 15.0396 44.9869C15.2199 44.6138 15.0634 44.1655 14.6904 43.9853Z" fill="black"/>
<path d="M17.8305 41.9414L11.2831 38.7806C10.91 38.6005 10.4616 38.7569 10.2815 39.13C10.1015 39.5031 10.2579 39.9515 10.631 40.1317L17.1783 43.2925C17.2834 43.3432 17.3946 43.3673 17.5039 43.3673C17.7827 43.3673 18.0505 43.2111 18.1799 42.9431C18.36 42.5699 18.2036 42.1214 17.8305 41.9414Z" fill="black"/>
</svg>
