<svg width="72" height="70" viewBox="0 0 72 70" fill="none" xmlns="http://www.w3.org/2000/svg">
<mask id="mask0" mask-type="alpha" maskUnits="userSpaceOnUse" x="0" y="0" width="72" height="70">
<rect width="72" height="70" fill="#C4C4C4"/>
</mask>
<g mask="url(#mask0)">
<rect x="15" y="-25" width="80" height="80" rx="40" fill="#5F9EA0"/>
</g>
<path d="M57.1726 11.4101C56.3774 8.91115 55.2997 7.1219 55.254 7.04671C55.0773 6.75566 54.7134 6.60426 54.3838 6.6798C54.2985 6.69927 52.2632 7.17394 49.9155 8.34551C46.7461 9.92662 44.5321 12.0375 43.5121 14.4487C42.6631 16.4569 42.5412 18.9118 43.1436 21.6239C41.8605 20.1921 40.4172 18.9397 38.8439 17.8852C38.3635 16.9369 37.0932 14.6022 35.1073 12.162C34.4532 11.3587 33.195 12.3668 33.8559 13.1781C35.194 14.8227 36.2012 16.4401 36.8312 17.5512L29.486 16.1205L22.5074 6.6093C23.1851 6.6187 23.8651 6.68416 24.5417 6.81676C26.6868 7.23638 28.8057 8.32805 30.8406 10.0609C31.6379 10.74 32.6733 9.50398 31.8865 8.83428C29.6386 6.92015 27.2717 5.70897 24.8514 5.23531C21.1569 4.51289 16.8478 5.46123 12.3889 7.97893C9.0656 9.85546 6.84321 11.9166 6.75048 12.0032C6.45316 12.2808 6.40579 12.7851 6.65473 13.1093C6.98062 13.7774 8.21561 16.1873 10.2714 18.7819C11.4832 20.3116 12.7612 21.6208 14.0832 22.6967C13.7076 23.0113 13.3421 23.3403 12.9883 23.6864C11.0988 25.533 9.65219 27.7113 8.70242 30.0927C7.86285 32.1969 7.41132 34.4604 7.38612 36.7935C7.34446 40.6087 8.45079 44.2882 10.5862 47.435C12.6721 50.5086 15.5883 52.8685 19.0191 54.2593C19.9793 54.6477 20.5864 53.1555 19.6255 52.7661C18.3825 52.2623 17.2147 51.6167 16.1376 50.849C16.2753 50.0856 16.5948 47.3383 14.7685 44.4943C14.5129 44.0965 15.2772 42.5342 15.7334 41.601C16.2044 40.6392 16.6906 39.6449 16.9177 38.7086C17.1589 37.714 16.8875 36.8791 16.1332 36.2933C15.5796 35.8633 14.8549 35.6407 14.2162 35.4444C13.8013 35.3168 13.331 35.1724 13.163 35.0325C12.8169 34.7428 12.2519 33.6722 11.7976 32.8125C11.2937 31.8588 10.8139 30.9511 10.3241 30.3922C11.4264 27.7765 13.1969 25.4618 15.4143 23.6911C17.4398 25.0698 19.7515 26.0211 22.2088 26.2138C19.3591 28.42 18.4373 31.2375 19.7549 33.9438C21.2936 37.104 24.4607 36.5991 27.2549 36.1544C27.7384 36.0771 28.2386 35.9976 28.7177 35.9378C28.8974 35.9153 28.9515 35.9643 28.9878 35.9962C29.5996 36.5401 29.5814 39.1373 29.5683 41.034C29.5505 43.6574 29.5337 46.1355 30.5117 47.4078C31.0106 48.0564 31.7131 48.388 32.5366 48.388C33.0301 48.388 33.5663 48.2692 34.1287 48.0282C36.5607 46.9875 39.0888 43.8555 38.7031 41.3774C38.3662 39.2108 38.1431 37.7794 38.6689 36.6257C39.155 35.5578 40.3302 34.5692 42.6446 33.3077C42.9218 34.5548 43.0616 35.8522 43.0471 37.1833C42.9977 41.7265 41.1802 45.9788 37.9298 49.1561C34.297 52.7071 29.1914 54.4607 24.1409 53.9045C23.1118 53.793 22.9341 55.3929 23.9645 55.5064C29.4928 56.1147 35.0821 54.1945 39.0572 50.3082C42.6161 46.8294 44.6057 42.1747 44.6597 37.2004C44.7316 30.605 41.3448 24.7619 36.1891 21.3959C37.2545 20.6369 38.048 19.9806 38.4881 19.5996C40.3678 20.9471 42.0352 22.6071 43.4224 24.541C46.7525 29.1847 48.0731 34.8455 47.1418 40.4818C45.2185 52.1166 34.1811 60.0198 22.535 58.0973C16.8938 57.1664 11.9535 54.0968 8.62347 49.4532C5.29308 44.8099 3.97241 39.1484 4.90404 33.5124C5.07135 32.4983 3.48124 32.2321 3.31326 33.2499C2.31108 39.3109 3.73187 45.3987 7.31221 50.3921C10.8932 55.3849 16.2065 58.6861 22.2723 59.6875C23.5408 59.8966 24.8108 60 26.072 60C30.8393 60 35.4769 58.5209 39.4288 55.6914C44.4269 52.1132 47.7311 46.8052 48.7326 40.7443C49.4667 36.3031 48.8986 31.8474 47.1341 27.8184C47.9485 27.5784 49.3343 27.1124 50.8522 26.3551C54.021 24.774 56.2353 22.6632 57.255 20.2519C58.2756 17.8399 58.2471 14.7824 57.1726 11.4101ZM10.3711 33.5645C10.9712 34.7011 11.5386 35.7754 12.1282 36.2682C12.5458 36.6169 13.127 36.7955 13.7422 36.9845C15.3182 37.4686 15.5013 37.7063 15.3501 38.329C15.1646 39.0947 14.7171 40.0091 14.2848 40.893C13.4519 42.5956 12.6654 44.2029 13.4109 45.3644C14.4682 47.0107 14.6493 48.6314 14.6311 49.6395C9.82823 45.3121 7.8726 38.477 9.66159 32.2647C9.89878 32.6709 10.1481 33.1428 10.3711 33.5645ZM49.3847 17.7308L47.0931 12.1818C48.2082 11.1398 49.502 10.3556 50.6039 9.80342C51.5426 9.33278 52.4356 8.98097 53.1519 8.73155L49.3847 17.7308ZM54.6385 9.35628C54.9587 10.0438 55.3299 10.9303 55.647 11.9324C55.9948 13.0321 56.3139 14.395 56.3774 15.8167L51.0071 18.0306L54.6385 9.35628ZM44.9974 15.0762C45.2352 14.5142 45.5427 13.9932 45.8978 13.5122L48.5065 19.8282L46.1655 25.4216C45.8366 24.7243 45.4493 23.8086 45.1207 22.7682C44.4612 20.6853 43.9048 17.6593 44.9974 15.0762ZM50.1635 24.8972C49.2601 25.3504 48.398 25.6935 47.6958 25.9409L50.1252 20.1377L56.3089 17.5882C56.2192 18.2804 56.0482 18.9665 55.7697 19.6245C54.6775 22.2076 52.1181 23.918 50.1635 24.8972ZM21.087 24.4387C20.8021 24.3829 20.5209 24.3148 20.2437 24.2372L29.1682 17.7006L36.5167 19.1317C33.8398 21.2392 27.3251 25.6599 21.087 24.4387ZM12.9308 19.3975C11.0222 17.3421 9.62329 15.1443 8.82001 13.7371L18.1715 15.5589L12.9308 19.3975ZM14.5824 8.64763L18.495 13.9801L9.08307 12.1469C10.268 11.212 12.224 9.80846 14.5824 8.64763ZM20.828 14.4346L16.0845 7.96953C17.5046 7.38643 19.0289 6.92754 20.5914 6.72344L27.1534 15.6663L20.828 14.4346ZM20.326 15.9785L27.014 17.281L18.4305 23.5675C16.8119 22.8206 15.3551 21.7467 14.0805 20.553L20.326 15.9785ZM42.2066 31.7125C39.2995 33.26 37.876 34.4755 37.2007 35.9583C36.4754 37.5505 36.7411 39.2595 37.109 41.6248C37.3264 43.0196 35.6674 45.6169 33.4937 46.5471C32.6894 46.8912 32.1166 46.8506 31.7904 46.4259C31.1497 45.5927 31.1672 43.071 31.181 41.0451C31.2001 38.242 31.2169 35.8213 30.0595 34.7924C29.6433 34.4225 29.1108 34.2661 28.5191 34.3386C28.0122 34.4017 27.4978 34.4836 27.0009 34.5628C24.0367 35.0348 22.1715 35.2238 21.2052 33.2389C19.6397 30.0239 22.8088 27.6425 24.244 26.768C24.5363 26.5901 24.8074 26.3803 25.0594 26.1467C28.5282 25.7324 31.8058 24.2453 34.7267 22.3825C38.2288 24.4732 40.9171 27.7818 42.2066 31.7125Z" fill="black"/>
</svg>
