<svg width="72" height="70" viewBox="0 0 72 70" fill="none" xmlns="http://www.w3.org/2000/svg">
<mask id="mask0" mask-type="alpha" maskUnits="userSpaceOnUse" x="0" y="0" width="72" height="70">
<rect width="72" height="70" fill="#C4C4C4"/>
</mask>
<g mask="url(#mask0)">
<rect x="15" y="-25" width="80" height="80" rx="40" fill="#DEE2FA"/>
<path d="M50.5222 40.2688C50.1397 40.0447 49.6499 40.1728 49.4274 40.5544L40.2542 56.1999C39.5916 57.3466 38.1216 57.742 37.01 57.1002L35.2231 55.9422C34.8518 55.7013 34.3564 55.807 34.1163 56.1783C33.8754 56.5488 33.9819 57.0449 34.3524 57.285L36.1745 58.4646C36.8027 58.8279 37.4901 58.9999 38.1687 58.9999C39.5523 58.9999 40.8983 58.2838 41.6369 57.0049L50.8068 41.3634C51.0303 40.9825 50.9031 40.492 50.5222 40.2688Z" fill="black"/>
<path d="M52.9428 11H40.139C37.663 11 35.8185 11.7882 33.9715 13.6352C33.6587 13.9481 33.6587 14.4539 33.9715 14.7667C34.2845 15.0796 34.7902 15.0796 35.1031 14.7667C36.6619 13.2078 38.0743 12.6004 40.139 12.6004H52.9428C54.2664 12.6004 55.3435 13.6776 55.3435 15.0011V27.8051C55.3435 29.8705 54.7361 31.2821 53.1765 32.8409L29.4109 56.6402C28.5034 57.5461 26.9221 57.5468 26.0163 56.6402L11.3038 41.9277C10.8501 41.474 10.6004 40.8714 10.6004 40.2295C10.6004 39.5886 10.8501 38.9859 11.303 38.533L32.7831 17.0834C33.1136 17.1674 33.4449 17.2514 33.7882 17.3434C37.0436 18.2157 39.6124 19.1168 41.5273 19.921C41.1504 20.6188 40.9392 21.4007 40.9392 22.2033C40.9392 24.8513 43.0926 27.0048 45.7406 27.0048C48.3886 27.0048 50.542 24.8513 50.542 22.2033C50.542 19.5553 48.3886 17.4019 45.7406 17.4019C45.2981 17.4019 44.9404 17.7604 44.9404 18.2021C44.9404 18.6438 45.2981 19.0023 45.7406 19.0023C47.506 19.0023 48.9415 20.4379 48.9415 22.2032C48.9415 23.9686 47.5059 25.4041 45.7406 25.4041C43.9753 25.4041 42.5397 23.9685 42.5397 22.2032C42.5397 21.627 42.6973 21.0645 42.9878 20.5748C44.3739 21.2381 45.2405 21.7975 45.5831 22.1544C45.4366 22.1961 45.2101 22.2425 44.8685 22.272C44.4284 22.3112 44.1027 22.6994 44.1419 23.1395C44.1787 23.5556 44.5276 23.8701 44.9381 23.8701C44.9613 23.8701 44.9853 23.8685 45.0093 23.8669C45.5015 23.8229 46.9987 23.6909 47.2868 22.6177C48.075 19.6736 36.5252 16.4198 34.202 15.7972C30.6481 14.8449 27.2352 14.1935 24.5903 13.9631C21.3406 13.6791 19.7577 14.0487 19.46 15.161C19.3176 15.6948 18.9375 17.112 25.4258 19.6704C25.8364 19.8328 26.3021 19.6312 26.4638 19.2198C26.6254 18.8085 26.4237 18.3436 26.0124 18.1819C22.8779 16.9455 21.579 16.0396 21.1629 15.6131C22.1497 15.3235 25.5243 15.4075 30.9587 16.643L10.1723 37.4007C9.41609 38.1569 9 39.1612 9 40.2295C9 41.2987 9.41609 42.3037 10.1723 43.0592L24.8847 57.7716C25.6393 58.527 26.6445 58.9432 27.7128 58.9432C28.7819 58.9432 29.7862 58.5271 30.5424 57.7708L54.3087 33.9725C56.1565 32.1255 56.9439 30.281 56.9439 27.8051V15.0012C56.944 12.7949 55.1491 11 52.9428 11Z" fill="black"/>
<path d="M35.1734 32.0407C34.8605 31.7278 34.3547 31.7278 34.0419 32.0407L33.6097 32.4729C32.9767 32.0536 32.2213 31.8063 31.4067 31.8063C29.2005 31.8063 27.4055 33.6012 27.4055 35.8075C27.4055 36.9999 27.8976 37.9426 28.3266 38.6316C28.7267 39.2741 29.006 40.1896 29.006 40.609C29.006 41.9326 27.9288 43.0097 26.6053 43.0097C25.2817 43.0097 24.2045 41.9326 24.2045 40.609C24.2045 40.1232 24.3493 39.6551 24.6231 39.255C24.8727 38.8909 24.7791 38.3923 24.415 38.1427C24.0501 37.8938 23.5523 37.9866 23.3027 38.3508C22.8457 39.0182 22.604 39.7992 22.604 40.6091C22.604 41.4237 22.8513 42.1791 23.2706 42.8121L22.8385 43.2442C22.5255 43.5571 22.5255 44.0629 22.8385 44.3758C22.9945 44.5318 23.1994 44.6102 23.4042 44.6102C23.6091 44.6102 23.8139 44.5318 23.97 44.3758L24.4021 43.9436C25.0351 44.3629 25.7905 44.6102 26.6052 44.6102C28.8114 44.6102 30.6064 42.8153 30.6064 40.609C30.6064 39.8296 30.2191 38.642 29.6853 37.7849C29.2092 37.0207 29.0059 36.4294 29.0059 35.8075C29.0059 34.4839 30.083 33.4068 31.4066 33.4068C32.0484 33.4068 32.6285 33.6629 33.0591 34.075C33.0727 34.0894 33.0774 34.1085 33.091 34.123C33.1055 34.1366 33.1246 34.1414 33.1391 34.155C33.5512 34.5855 33.8072 35.1657 33.8072 35.8074C33.8072 36.4492 33.5567 37.0534 33.1022 37.5079C32.7893 37.82 32.7893 38.3266 33.1014 38.6394C33.4126 38.9524 33.92 38.9515 34.2329 38.6403C34.99 37.8832 35.4076 36.8773 35.4076 35.8074C35.4076 34.9928 35.1604 34.2374 34.7411 33.6044L35.1732 33.1723C35.4863 32.8594 35.4863 32.3536 35.1734 32.0407Z" fill="black"/>
</g>
</svg>
