<svg width="10" height="14" viewBox="0 0 10 14" fill="none" xmlns="http://www.w3.org/2000/svg">
<path d="M5.00006 14C4.69447 14 4.42081 13.8415 4.26807 13.576C4.26645 13.5733 4.26489 13.5704 4.26334 13.5676L0.791719 7.21332C-0.0369604 5.69654 -0.0131988 3.8962 0.855293 2.39743C1.70495 0.93115 3.2141 0.0353418 4.8923 0.00110742C4.96399 -0.000369141 5.03607 -0.000369141 5.10771 0.00110742C6.78593 0.0353418 8.29509 0.93115 9.14477 2.39743C10.0133 3.8962 10.037 5.69651 9.20834 7.21332L5.73673 13.5676C5.73517 13.5704 5.73361 13.5733 5.732 13.576C5.57928 13.8415 5.30565 14 5.00006 14ZM5.00003 0.875014C4.96998 0.875014 4.94001 0.875314 4.9101 0.875916C3.5402 0.903861 2.30738 1.63665 1.61233 2.83613C0.898469 4.06811 0.878727 5.5476 1.55956 6.79376L5.00003 13.091L8.44048 6.79379C9.12131 5.5476 9.10159 4.06811 8.38768 2.83613C7.69262 1.63667 6.4598 0.903861 5.08991 0.875916C5.06008 0.875314 5.03008 0.875014 5.00003 0.875014Z" fill="white"/>
<path d="M5 6.34375C3.91443 6.34375 3.03125 5.46057 3.03125 4.375C3.03125 3.28943 3.91443 2.40625 5 2.40625C6.08557 2.40625 6.96875 3.28943 6.96875 4.375C6.96875 5.46057 6.0856 6.34375 5 6.34375ZM5 3.28125C4.39691 3.28125 3.90625 3.77191 3.90625 4.375C3.90625 4.97809 4.39691 5.46875 5 5.46875C5.60309 5.46875 6.09375 4.97809 6.09375 4.375C6.09375 3.77191 5.60309 3.28125 5 3.28125Z" fill="white"/>
</svg>
